<svg width="40" height="40" viewBox="0 0 40 40" fill="none" xmlns="http://www.w3.org/2000/svg">
<path d="M7.5 15.8335C7.5 8.92994 13.0964 3.3335 20 3.3335C26.9036 3.3335 32.5 8.92994 32.5 15.8335C32.5 19.5346 30.8915 22.86 28.3354 25.1487C26.4676 26.8212 25.5336 27.6576 25.282 27.9681C24.4706 28.9693 24.4348 29.0494 24.2301 30.3218C24.1667 30.7163 24.1667 31.3109 24.1667 32.5002C24.1667 34.0579 24.1667 34.8367 23.8317 35.4168C23.6123 35.7969 23.2967 36.1125 22.9167 36.3319C22.3365 36.6668 21.5577 36.6668 20 36.6668C18.4423 36.6668 17.6635 36.6668 17.0833 36.3319C16.7033 36.1125 16.3877 35.7969 16.1683 35.4168C15.8333 34.8367 15.8333 34.0579 15.8333 32.5002C15.8333 31.3109 15.8333 30.7163 15.7699 30.3218C15.5652 29.0494 15.5294 28.9693 14.718 27.9681C14.4664 27.6576 13.5324 26.8212 11.6646 25.1487C9.10851 22.86 7.5 19.5346 7.5 15.8335Z" stroke="#F03030" stroke-width="2.3"/>
<path opacity="0.5" d="M24.1666 32.5H15.8333" stroke="#F03030" stroke-width="2.3"/>
<path opacity="0.5" d="M19.9999 28.3335V25.0002M19.9999 25.0002C21.2337 25.0002 22.311 24.3298 22.8873 23.3335M19.9999 25.0002C18.7661 25.0002 17.6889 24.3298 17.1125 23.3335" stroke="#F03030" stroke-width="2.3" stroke-linecap="round"/>
</svg>
