<svg width="40" height="40" viewBox="0 0 40 40" fill="none" xmlns="http://www.w3.org/2000/svg">
<path opacity="0.5" d="M16.6667 36.6667C10.3813 36.6667 7.23862 36.6667 5.286 34.714C3.33337 32.7614 3.33337 31.2854 3.33337 25" stroke="#F03030" stroke-width="2.3" stroke-linecap="round"/>
<path opacity="0.5" d="M36.6666 25C36.6666 31.2854 36.6666 32.7614 34.714 34.714C32.7613 36.6667 29.6186 36.6667 23.3333 36.6667" stroke="#F03030" stroke-width="2.3" stroke-linecap="round"/>
<path opacity="0.5" d="M23.3333 3.3335C29.6186 3.3335 32.7613 3.3335 34.714 5.28612C36.6666 7.23874 36.6666 8.71477 36.6666 15.0002" stroke="#F03030" stroke-width="2.3" stroke-linecap="round"/>
<path opacity="0.5" d="M16.6667 3.3335C10.3813 3.3335 7.23862 3.3335 5.286 5.28612C3.33337 7.23874 3.33337 8.71477 3.33337 15.0002" stroke="#F03030" stroke-width="2.3" stroke-linecap="round"/>
<path d="M9.82075 23.4328C8.82917 22.2826 8.33337 21.7075 8.33337 19.9998C8.33337 18.2922 8.82917 17.7171 9.82075 16.5668C11.8007 14.2702 15.1212 11.6665 20 11.6665C24.8789 11.6665 28.1994 14.2702 30.1793 16.5668C31.1709 17.7171 31.6667 18.2922 31.6667 19.9998C31.6667 21.7075 31.1709 22.2826 30.1793 23.4328C28.1994 25.7295 24.8789 28.3332 20 28.3332C15.1212 28.3332 11.8007 25.7295 9.82075 23.4328Z" stroke="#F03030" stroke-width="2.3"/>
<circle cx="20.0001" cy="19.9998" r="3.33333" stroke="#F03030" stroke-width="2.3"/>
</svg>
