<svg width="40" height="40" viewBox="0 0 40 40" fill="none" xmlns="http://www.w3.org/2000/svg">
<path d="M18.102 5.60575C18.9465 4.09091 19.3687 3.3335 19.9999 3.3335C20.6312 3.3335 21.0534 4.09091 21.8978 5.60575L22.1163 5.99765C22.3562 6.42812 22.4762 6.64335 22.6633 6.78537C22.8504 6.92738 23.0834 6.9801 23.5493 7.08553L23.9736 7.18151C25.6133 7.55253 26.4332 7.73804 26.6283 8.36532C26.8234 8.99259 26.2644 9.64621 25.1465 10.9534L24.8573 11.2916C24.5396 11.6631 24.3808 11.8489 24.3093 12.0786C24.2379 12.3084 24.2619 12.5562 24.3099 13.0519L24.3537 13.5031C24.5227 15.2472 24.6072 16.1193 24.0965 16.507C23.5858 16.8947 22.8181 16.5412 21.2828 15.8343L20.8856 15.6514C20.4493 15.4505 20.2312 15.3501 19.9999 15.3501C19.7687 15.3501 19.5505 15.4505 19.1142 15.6514L18.717 15.8343C17.1817 16.5412 16.414 16.8947 15.9034 16.507C15.3927 16.1193 15.4772 15.2472 15.6462 13.5031L15.6899 13.0519C15.7379 12.5562 15.7619 12.3084 15.6905 12.0786C15.619 11.8489 15.4602 11.6631 15.1425 11.2916L14.8533 10.9534C13.7354 9.64621 13.1765 8.99259 13.3715 8.36532C13.5666 7.73804 14.3865 7.55253 16.0263 7.18152L16.4505 7.08553C16.9165 6.9801 17.1495 6.92738 17.3365 6.78537C17.5236 6.64335 17.6436 6.42812 17.8836 5.99765L18.102 5.60575Z" stroke="#F03030" stroke-width="2.3"/>
<path d="M32.3844 12.8026C32.8066 12.0452 33.0177 11.6665 33.3333 11.6665C33.649 11.6665 33.8601 12.0452 34.2823 12.8026L34.3915 12.9986C34.5115 13.2138 34.5715 13.3214 34.665 13.3924C34.7586 13.4634 34.875 13.4898 35.108 13.5425L35.3202 13.5905C36.14 13.776 36.55 13.8688 36.6475 14.1824C36.7451 14.4961 36.4656 14.8229 35.9066 15.4765L35.762 15.6456C35.6032 15.8313 35.5238 15.9242 35.488 16.0391C35.4523 16.154 35.4643 16.2779 35.4883 16.5257L35.5102 16.7513C35.5947 17.6234 35.637 18.0594 35.3816 18.2532C35.1263 18.4471 34.7424 18.2704 33.9748 17.9169L33.7762 17.8254C33.558 17.725 33.449 17.6748 33.3333 17.6748C33.2177 17.6748 33.1086 17.725 32.8905 17.8254L32.6919 17.9169C31.9242 18.2704 31.5404 18.4471 31.285 18.2532C31.0297 18.0594 31.072 17.6234 31.1565 16.7513L31.1783 16.5257C31.2023 16.2779 31.2143 16.154 31.1786 16.0391C31.1429 15.9242 31.0635 15.8313 30.9046 15.6456L30.76 15.4765C30.2011 14.8229 29.9216 14.4961 30.0191 14.1824C30.1167 13.8688 30.5266 13.776 31.3465 13.5905L31.5586 13.5425C31.7916 13.4898 31.9081 13.4634 32.0016 13.3924C32.0952 13.3214 32.1552 13.2138 32.2752 12.9986L32.3844 12.8026Z" stroke="#F03030" stroke-width="1.5"/>
<path d="M5.71764 12.8026C6.13986 12.0452 6.35096 11.6665 6.66659 11.6665C6.98221 11.6665 7.19331 12.0452 7.61553 12.8026L7.72476 12.9986C7.84474 13.2138 7.90473 13.3214 7.99827 13.3924C8.09181 13.4634 8.2083 13.4898 8.44129 13.5425L8.65341 13.5905C9.4733 13.776 9.88325 13.8688 9.98078 14.1824C10.0783 14.4961 9.79884 14.8229 9.23989 15.4765L9.09528 15.6456C8.93644 15.8313 8.85703 15.9242 8.8213 16.0391C8.78557 16.154 8.79758 16.2779 8.82159 16.5257L8.84345 16.7513C8.92796 17.6234 8.97021 18.0594 8.71487 18.2532C8.45953 18.4471 8.07569 18.2704 7.30803 17.9169L7.10942 17.8254C6.89128 17.725 6.7822 17.6748 6.66659 17.6748C6.55097 17.6748 6.44189 17.725 6.22375 17.8254L6.02514 17.9169C5.25748 18.2704 4.87364 18.4471 4.6183 18.2532C4.36296 18.0594 4.40521 17.6234 4.48972 16.7513L4.51158 16.5257C4.53559 16.2779 4.5476 16.154 4.51187 16.0391C4.47614 15.9242 4.39673 15.8313 4.23789 15.6456L4.09328 15.4765C3.53433 14.8229 3.25486 14.4961 3.35239 14.1824C3.44992 13.8688 3.85987 13.776 4.67976 13.5905L4.89188 13.5425C5.12487 13.4898 5.24136 13.4634 5.3349 13.3924C5.42844 13.3214 5.48843 13.2138 5.60841 12.9986L5.71764 12.8026Z" stroke="#F03030" stroke-width="1.5"/>
<path opacity="0.5" d="M6.66675 35.6473H10.4333C12.1181 35.6473 13.821 35.8228 15.4606 36.1606C18.361 36.7582 21.4148 36.8306 24.345 36.3563C25.7897 36.1224 27.2102 35.7648 28.4959 35.1442C29.6566 34.584 31.0783 33.7944 32.0333 32.9099C32.9869 32.0266 33.9801 30.5811 34.685 29.4512C35.2894 28.4824 34.9971 27.2937 34.041 26.5717C32.9789 25.7698 31.4029 25.77 30.3411 26.5721L27.3291 28.8474C26.1618 29.7292 24.8867 30.5409 23.3677 30.7832C23.1851 30.8123 22.9937 30.8389 22.794 30.862M22.794 30.862C22.7339 30.869 22.673 30.8756 22.6114 30.8819M22.794 30.862C23.037 30.8099 23.2783 30.6601 23.5047 30.4625C24.5767 29.5268 24.6445 27.95 23.7143 26.9052C23.4985 26.6628 23.246 26.4606 22.9652 26.2932C18.303 23.5124 11.0491 25.6303 6.66675 28.7382M22.794 30.862C22.7332 30.875 22.6723 30.8819 22.6114 30.8819M22.6114 30.8819C21.7392 30.9715 20.7187 30.9946 19.5864 30.8877" stroke="#F03030" stroke-width="2.3" stroke-linecap="round"/>
</svg>
