<svg width="40" height="40" viewBox="0 0 40 40" fill="none" xmlns="http://www.w3.org/2000/svg">
<path d="M24.1667 10.8335H29.1667M29.1667 10.8335H34.1667M29.1667 10.8335V15.8335M29.1667 10.8335V5.8335" stroke="#F03030" stroke-width="2.3" stroke-linecap="round"/>
<path d="M4.16663 10.8332C4.16663 7.69047 4.16663 6.11913 5.14294 5.14281C6.11925 4.1665 7.6906 4.1665 10.8333 4.1665C13.976 4.1665 15.5473 4.1665 16.5236 5.14281C17.5 6.11913 17.5 7.69047 17.5 10.8332C17.5 13.9759 17.5 15.5472 16.5236 16.5235C15.5473 17.4998 13.976 17.4998 10.8333 17.4998C7.6906 17.4998 6.11925 17.4998 5.14294 16.5235C4.16663 15.5472 4.16663 13.9759 4.16663 10.8332Z" stroke="#F03030" stroke-width="2.3"/>
<path d="M22.5 29.1667C22.5 26.024 22.5 24.4526 23.4763 23.4763C24.4526 22.5 26.024 22.5 29.1667 22.5C32.3094 22.5 33.8807 22.5 34.857 23.4763C35.8333 24.4526 35.8333 26.024 35.8333 29.1667C35.8333 32.3094 35.8333 33.8807 34.857 34.857C33.8807 35.8333 32.3094 35.8333 29.1667 35.8333C26.024 35.8333 24.4526 35.8333 23.4763 34.857C22.5 33.8807 22.5 32.3094 22.5 29.1667Z" stroke="#F03030" stroke-width="2.3"/>
<path opacity="0.5" d="M4.16663 29.1667C4.16663 26.024 4.16663 24.4526 5.14294 23.4763C6.11925 22.5 7.6906 22.5 10.8333 22.5C13.976 22.5 15.5473 22.5 16.5236 23.4763C17.5 24.4526 17.5 26.024 17.5 29.1667C17.5 32.3094 17.5 33.8807 16.5236 34.857C15.5473 35.8333 13.976 35.8333 10.8333 35.8333C7.6906 35.8333 6.11925 35.8333 5.14294 34.857C4.16663 33.8807 4.16663 32.3094 4.16663 29.1667Z" stroke="#F03030" stroke-width="2.3"/>
</svg>
